<?xml version="1.0" encoding="UTF-8" standalone="no"?>
<!-- Created with Inkscape (http://www.inkscape.org/) -->

<svg
   version="1.1"
   id="svg1"
   viewBox="440 550 930 730"
   sodipodi:docname="parley-logo.svg"
   inkscape:export-filename="parley-logo.png"
   inkscape:export-xdpi="96"
   inkscape:export-ydpi="96"
   inkscape:version="1.4.2 (ebf0e940, 2025-05-08)"
   xmlns:inkscape="http://www.inkscape.org/namespaces/inkscape"
   xmlns:sodipodi="http://sodipodi.sourceforge.net/DTD/sodipodi-0.dtd"
   xmlns="http://www.w3.org/2000/svg"
   xmlns:svg="http://www.w3.org/2000/svg">
  <sodipodi:namedview
     id="namedview1"
     pagecolor="#ffffff"
     bordercolor="#000000"
     borderopacity="0.25"
     inkscape:showpageshadow="2"
     inkscape:pageopacity="0.0"
     inkscape:pagecheckerboard="0"
     inkscape:deskcolor="#d1d1d1"
     inkscape:export-bgcolor="#ffffffff"
     inkscape:zoom="0.66407554"
     inkscape:cx="313.97031"
     inkscape:cy="322.2525"
     inkscape:window-width="1728"
     inkscape:window-height="1051"
     inkscape:window-x="0"
     inkscape:window-y="38"
     inkscape:window-maximized="1"
     inkscape:current-layer="svg1" />
  <defs
     id="defs1" />
  <g
     id="g1">
    <g
       id="g8">
      <path
         style="fill:#182F53;fill-opacity:1"
         d="m 582.0933,1230.9945 c -2.72852,-1.2351 -4.41358,-3.4826 -5.42985,-7.2423 -0.93952,-3.4757 -0.24829,-8.1968 4.06329,-27.7523 4.64019,-21.0458 7.98477,-39.8458 11.64461,-65.4545 4.36261,-30.5263 5.82629,-44.3733 7.76442,-73.4545 2.39333,-35.9115 2.11404,-95.59793 -0.57554,-122.99804 l -0.43706,-4.45255 -7.74341,3.44994 c -18.00775,8.02302 -34.03458,12.0598 -51.01613,12.84974 -14.0568,0.65389 -24.94818,-2.79336 -32.41434,-10.25951 -8.52392,-8.52393 -8.09348,-22.9345 0.77246,-25.86053 4.01219,-1.32414 6.54609,-0.28641 12.60146,5.16078 7.9665,7.16637 8.88378,7.52026 20.22086,7.80113 11.35931,0.28142 19.21085,-0.89983 30.44805,-4.58086 8.15004,-2.66976 23.54659,-10.19127 24.16606,-11.80559 0.42866,-1.11705 -4.24326,-33.03213 -6.79164,-46.39545 -0.99164,-5.2 -3.27814,-15.18182 -5.08111,-22.18182 -14.28942,-55.47835 -29.94852,-91.48869 -54.23766,-124.72727 -7.40927,-10.13926 -11.52604,-17.7883 -11.9897,-22.27716 -0.6551,-6.34219 4.32993,-11.29302 10.56927,-10.49676 5.25868,0.67111 10.75866,5.70837 18.77507,17.19552 2.07132,2.96812 5.90601,8.34204 8.52152,11.94204 12.54524,17.2673 23.47409,38.81272 33.50794,66.05842 12.49126,33.91852 21.31086,67.67 26.33137,100.76686 1.18595,7.81818 2.32139,13.17471 2.79267,13.17471 1.5865,0 17.75736,-17.30005 23.79311,-25.45455 18.2464,-24.65148 30.66969,-47.66964 36.11197,-66.90908 0.84861,-3 2.32562,-8.07273 3.28224,-11.27273 5.6646,-18.94866 7.24931,-32.52914 6.28007,-53.81818 -0.75037,-16.48153 -2.14255,-26.42611 -5.54884,-39.63636 -1.39241,-5.4 -2.35551,-10.52826 -2.14023,-11.39613 0.21528,-0.86787 -0.26276,-3.10409 -1.06232,-4.96938 -0.79956,-1.86529 -1.45374,-4.02353 -1.45374,-4.79608 0,-0.77255 -2.08751,-5.57269 -4.6389,-10.66697 -2.5514,-5.09429 -5.15183,-10.77605 -5.77874,-12.62612 -1.98203,-5.84922 -7.47834,-13.85662 -14.46189,-21.06911 -11.28663,-11.65663 -16.43199,-14.35047 -33.98734,-17.79399 -9.16062,-1.79688 -10.20922,-1.86304 -16.65908,-1.0512 -26.47495,3.33242 -53.28702,12.88283 -68.7516,24.48918 -12.68613,9.5211 -24.155,24.07644 -30.93718,39.26294 -5.17191,11.58082 -5.55515,13.96491 -4.51405,28.08153 0.97919,13.27716 2.96969,32.62274 3.43389,33.37382 0.67887,1.09845 -1.21707,4.23912 -2.79868,4.63607 -4.26463,1.07036 -8.5014,-3.49539 -11.41813,-12.3047 -2.79434,-8.43964 -5.12466,-24.89877 -5.12466,-36.19558 0,-8.55743 1.80315,-14.96579 7.73702,-27.49722 10.76078,-22.72513 27.07429,-40.33456 48.07103,-51.88971 21.86592,-12.03348 40.57289,-17.8243 66.37377,-20.54625 13.41271,-1.41502 20.606,-1.03945 29.50967,1.54073 12.37802,3.58701 23.3615,10.89562 37.04309,24.64914 12.41734,12.48262 21.65347,29.25113 30.06675,54.58721 6.31091,19.00488 6.97662,21.65281 8.50228,33.81818 0.99746,7.95366 1.13844,12.92572 0.74236,26.18182 -0.80813,27.04705 -0.98743,29.94233 -2.22938,36 -1.32739,6.47431 -8.31505,27.81179 -10.95581,33.45454 -0.93598,2 -3.04675,7.53791 -4.69059,12.30647 -7.55297,21.91009 -24.16856,51.09024 -41.23133,72.41006 -5.75463,7.19038 -19.03264,20.60085 -25.57379,25.82892 l -4.54968,3.63636 0.40313,3.27273 c 4.22763,34.32108 5.24099,89.05274 2.60501,140.69774 -1.75287,34.3429 -2.92964,48.4122 -6.23753,74.575 -7.79422,61.6459 -14.70525,89.0325 -24.45973,96.9274 -3.14263,2.5436 -7.7972,3.2506 -11.21478,1.7035 z m 508.6272,-73.9732 c -8.3038,-0.3148 -17.7983,-1.0783 -21.0991,-1.6968 -14.9673,-2.8046 -42.388,-11.1386 -75.4396,-22.9284 -9.13862,-3.2599 -21.1687,-7.1108 -58.54545,-18.7407 -8.6553,-2.6932 -30.30076,-7.9162 -42.81435,-10.3311 -10.80753,-2.0856 -22.42896,-2.6224 -33.64578,-1.5541 -18.0172,1.716 -20.86765,2.7527 -36.99442,13.4543 -5.5535,3.6853 -10.05349,6.1899 -10.90616,6.0702 -2.17607,-0.3056 -4.94299,-8.4801 -4.55101,-13.4456 0.6577,-8.3313 10.07421,-21.0088 19.22116,-25.8775 6.90048,-3.6729 20.68535,-6.1213 42.0542,-7.4696 17.86392,-1.127 47.66842,4.0601 86.39252,15.0357 26.12924,7.4058 41.807,12.5331 58.69839,19.197 36.359,14.3443 54.2566,20.3878 65.4545,22.1024 2.6,0.3981 13.8909,0.941 25.0909,1.2065 30.2653,0.7175 42.5401,-1.1732 64.4124,-9.9213 16.0574,-6.4223 21.7935,-9.6463 35.781,-20.1112 12.2426,-9.1594 15.8442,-12.457 27.6152,-25.2839 10.2995,-11.2234 13.22,-15.6217 24.8288,-37.3932 15.779,-29.5923 21.1947,-42.87538 30.2519,-74.19895 5.0906,-17.60551 7.4385,-27.62948 8.4379,-36.02317 l 0.517,-4.34262 -3.8657,3.47554 c -8.2162,7.38715 -18.5197,12.11879 -26.3894,12.11879 -13.2747,0 -32.1823,-9.13727 -39.8082,-19.23761 -5.7945,-7.67475 -10.5132,-21.00954 -12.3688,-34.95368 -1.0363,-7.7873 -0.4716,-49.04934 0.7513,-54.89962 2.4803,-11.8649 4.9599,-17.15027 9.4903,-20.22873 2.9987,-2.03762 7.8129,-1.88585 10.2944,0.32454 3.8574,3.43595 3.8701,3.57752 3.8701,43.17692 v 36.72727 l 2.0683,6.54545 c 1.1376,3.6 2.7246,7.72325 3.5267,9.16278 2.3382,4.19641 11.5905,9.0151 20.0558,10.44531 2.5278,0.42706 3.6528,0.17274 6.8498,-1.54855 10.3783,-5.58761 18.6505,-19.00648 22.1174,-35.87772 3.6353,-17.69116 3.0894,-35.60075 -1.5123,-49.61509 -3.6681,-11.17089 -3.4029,-18.81595 0.8271,-23.84298 2.6363,-3.13311 5.7985,-4.5679 10.0672,-4.5679 8.8271,0 17.0705,8.0535 19.5923,19.14101 2.6726,11.7506 1.9829,38.11393 -1.3308,50.87231 -1.5694,6.04228 -1.6165,6.99857 -0.9891,20.08757 1.3289,27.72438 -0.3401,45.11229 -6.3454,66.1069 -1.3729,4.8 -3.2901,11.83636 -4.2603,15.63636 -6.1955,24.26636 -16.4896,51.12237 -25.4287,66.34007 -2.181,3.713 -7.1484,12.4781 -11.0387,19.4781 -18.0186,32.4223 -43.6935,59.8689 -71.2207,76.1352 -11.4772,6.7821 -34.9823,15.3256 -51.3422,18.6615 -17.4875,3.5659 -24.4408,3.8742 -58.3704,2.5883 z M 760.995,979.02614 c -8.72987,-3.01725 -17.32437,-9.95829 -21.93437,-17.71452 -3.1656,-5.32606 -7.09519,-16.83824 -8.48625,-24.86148 -0.66529,-3.83717 -1.11985,-10.80755 -1.11985,-17.17222 0,-18.60842 6.01141,-46.94216 12.88527,-60.73251 14.74464,-29.58073 36.54806,-47.43259 56.12883,-45.95629 7.39763,0.55775 13.41956,3.55978 18.06742,9.00688 4.95907,5.81183 6.18348,6.98116 8.73718,8.34413 1.24988,0.6671 2.90911,2.4671 3.68716,4 1.30673,2.5745 1.45302,5.08937 1.91772,32.96892 0.70024,42.01004 2.27502,57.55326 7.39384,72.9779 2.27174,6.84547 4.56986,9.64468 10.52327,12.81782 3.98944,2.12635 4.94194,2.34769 8.65422,2.01107 2.29426,-0.20803 4.51884,-0.16351 4.9435,0.099 0.42467,0.26246 1.14979,1.97705 1.61139,3.81019 1.20161,4.77206 -0.0609,8.89564 -3.89855,12.73329 -6.67273,6.67273 -17.37353,6.20267 -29.26966,-1.28572 -8.46049,-5.32573 -12.37119,-10.62779 -18.39589,-24.9409 l -0.90121,-2.14102 -2.67861,6.17177 c -3.98147,9.1737 -7.11575,14.27865 -11.39233,18.55523 -4.61421,4.61421 -11.46057,9.15335 -16.84387,11.1675 -5.11023,1.91199 -14.31392,1.9781 -19.62921,0.14101 z m 15.46953,-19.80231 c 4.51395,-2.18516 10.72292,-9.21334 12.62405,-14.28964 0.86655,-2.31383 4.01454,-14.18878 6.99553,-26.38878 4.47709,-18.32294 5.60002,-24.14289 6.45484,-33.45455 0.56917,-6.2 1.52509,-15.69091 2.12426,-21.09091 0.59918,-5.39999 1.31302,-13.47852 1.58632,-17.95228 l 0.49689,-8.13411 -3.55503,-2.27149 c -2.69909,-1.72459 -4.08036,-2.17259 -5.73686,-1.86071 -13.87651,2.61267 -30.52647,24.04052 -38.88993,50.04982 -5.26349,16.36879 -6.70185,24.14019 -7.09807,38.35059 -0.29134,10.44889 -0.13447,13.57353 0.87629,17.45454 2.22967,8.56119 8.02049,16.40964 14.45905,19.5967 3.79936,1.88068 5.76259,1.87881 9.66266,-0.009 z m 122.80818,8.80955 c -2.69569,-1.11501 -4.8916,-4.28342 -5.91504,-8.53462 -1.43998,-5.98148 -2.40197,-31.73274 -2.79338,-74.77561 -0.30032,-33.02622 -0.79044,-43.57274 -2.30542,-49.6089 -0.38299,-1.52597 -0.7082,-1.69002 -2.35167,-1.1863 -3.47298,1.06447 -8.5647,0.70697 -10.13196,-0.71139 -5.44251,-4.9254 -2.65502,-13.29087 5.83916,-17.52369 8.61677,-4.29392 18.65902,-0.62169 23.95325,8.75917 l 2.20645,3.90961 5.68493,-5.27176 c 10.486,-9.72389 17.28361,-12.51343 30.54095,-12.53313 7.33236,-0.0109 7.82002,0.0882 12.24969,2.48979 12.38535,6.71478 11.49758,17.00297 -2.00044,23.18256 -3.2168,1.47271 -5.65522,1.92615 -12.46727,2.31839 -6.59384,0.37967 -9.21698,0.85002 -11.85048,2.12487 -11.121,5.38359 -19.36523,27.49485 -19.39915,52.02908 -0.007,5.21418 0.3819,18.98337 0.86468,30.59821 1.29125,31.06549 -0.16811,41.37523 -6.26636,44.26904 -2.69467,1.27871 -3.69758,1.35827 -5.85794,0.46468 z m 123.27269,-1.88777 c -7.4173,-2.3248 -14.2089,-9.877 -18.8002,-20.90571 -4.63459,-11.13281 -4.85015,-13.15551 -4.70496,-44.14904 0.0721,-15.4 0.47021,-31.92727 0.8846,-36.72727 0.41436,-4.8 1.26626,-29.34545 1.89316,-54.54545 1.1746,-47.22293 2.4504,-69.91221 4.4,-78.24911 1.4695,-6.28417 3.9774,-9.34258 8.1105,-9.89109 2.6926,-0.35734 3.3123,-0.14906 5.2138,1.75241 3.6509,3.6509 3.863,5.79601 4.1552,42.02416 0.1484,18.39999 0.6181,44.51472 1.0438,58.03271 0.4256,13.51799 0.7258,42.97253 0.6672,65.45454 -0.1344,51.48855 0.2017,54.19035 7.5012,60.30182 l 3.6627,3.06664 5.5985,-3.03404 c 6.4549,-3.49816 7.7811,-3.23264 6.2024,1.2418 -1.9542,5.53882 -4.0494,8.65998 -7.527,11.21278 -7.3187,5.37237 -11.7981,6.45298 -18.3009,4.41485 z m 92.1472,-0.67788 c -8.4167,-1.19797 -10.8217,-1.92056 -17.6017,-5.28845 -12.2541,-6.08707 -18.828,-14.96294 -25.1804,-33.99751 -2.384,-7.14352 -2.4261,-7.49238 -2.3739,-19.63636 0.058,-13.44395 1.4256,-22.064 6.0597,-38.19103 4.3905,-15.27897 9.2683,-26.31175 16.0731,-36.35442 11.6808,-17.23885 23.214,-26.59872 38.1108,-30.92935 5.8506,-1.70081 18.0049,-1.19902 23.5853,0.97373 11.248,4.37943 17.4904,13.30858 17.5263,25.06947 0.032,10.35845 -6.6546,25.02305 -15.8868,34.84406 -13.4007,14.25543 -37.2842,24.61637 -47.6334,20.66397 -4.3276,-1.65273 -5.884,-3.53629 -5.884,-7.1208 0,-3.7235 2.3625,-5.91169 8.1743,-7.57117 10.3405,-2.95256 25.4285,-13.33418 29.6526,-20.40306 2.6006,-4.35193 4.6014,-10.10932 5.1887,-14.93057 l 0.4146,-3.40371 -2.6908,-0.50481 c -3.6522,-0.68515 -10.1114,0.71471 -14.1614,3.06907 -7.2247,4.19994 -17.8641,17.49315 -23.6428,29.5401 -5.4155,11.28975 -9.1973,27.82483 -9.6837,42.33943 l -0.3655,10.90909 2.3172,5.99121 c 3.062,7.91686 7.4615,14.40348 11.5108,16.97146 3.6551,2.318 10.7634,4.13556 18.5297,4.73795 4.9537,0.38423 5.582,0.25583 10.5095,-2.14775 7.8819,-3.84468 15.9768,-9.58975 18.1595,-12.88796 2.7045,-4.08683 4.4723,-3.6789 6.5737,1.5169 1.7905,4.4275 2.1021,9.39193 0.8261,13.1642 -1.2865,3.80346 -6.9264,11.86931 -10.8952,15.58165 -1.9637,1.83682 -6.0668,4.52523 -9.1181,5.97425 -5.1429,2.44235 -6.1102,2.64916 -13.2581,2.83459 -4.2408,0.11001 -10.917,-0.25637 -14.8361,-0.81418 z m -36.2031,-182.1391 c -1.5432,-1.54322 -2.1259,-2.82649 -2.1259,-4.68214 0,-3.44329 1.8453,-11.34314 4.1007,-17.55562 1.0165,-2.8 2.9418,-8.2 4.2785,-12 3.8323,-10.89526 7.5273,-20.27723 10.2593,-26.04949 1.4454,-3.05391 2.3396,-5.8877 2.0979,-6.64905 -0.4493,-1.4155 -2.7888,-2.54323 -6.9182,-3.33484 -5.566,-1.067 -12.1595,-5.38713 -18.7275,-12.27044 -5.2346,-5.48583 -6.6214,-7.43728 -7.818,-11.00069 -3.0214,-8.99835 -0.7642,-25.20745 4.6821,-33.62263 9.2569,-14.30285 36.7894,-31.99285 60.0822,-38.60368 2.7797,-0.7889 8.163,-2.40156 11.963,-3.58369 12.0771,-3.75703 21.1659,-4.69967 41.8199,-4.33736 20.1286,0.35309 19.7696,0.2901 40.2646,7.06558 10.8506,3.58711 29.4052,12.51244 35.8072,17.22434 9.8075,7.21845 17.2258,15.76569 19.9064,22.93604 1.0191,2.7262 1.2113,4.98786 0.9579,11.27272 -0.3562,8.83234 -1.6179,12.48794 -7.0924,20.54945 -4.7109,6.93709 -16.7713,16.40043 -25.5229,20.02686 -2.5774,1.06799 -5.9952,2.54912 -7.5952,3.29139 -6.1568,2.85627 -14.6443,4.54084 -36.5584,7.25598 -16.0872,1.9932 -33.1293,1.89488 -53.5995,-0.30922 -2.8335,-0.3051 -3.0393,-0.15879 -11.5131,8.18677 -7.6753,7.55902 -14.8859,15.72056 -25.2348,28.56276 -3.3574,4.16626 -8.5598,10.32978 -13.1185,15.54198 -1.4134,1.61597 -4.0316,4.87448 -5.8182,7.24113 -5.5166,7.30752 -10.4681,8.95286 -14.5771,4.84385 z m 31.2239,-47.54802 c 1.3423,-1.67936 5.9617,-6.81701 10.2653,-11.41701 4.3036,-4.6 9.5336,-10.40909 11.6223,-12.90909 l 3.7976,-4.54546 9.2098,-0.02 c 29.6568,-0.0643 42.3624,-0.50374 50.3007,-1.73958 16.8359,-2.62106 28.7131,-4.86607 32.6722,-6.17567 7.9265,-2.62191 16.4669,-7.17913 22.2581,-11.877 8.7614,-7.10734 11.9788,-12.4851 11.9788,-20.02202 0,-3.42319 -0.4036,-4.88093 -2.0853,-7.53276 -2.3613,-3.72341 -11.8246,-11.19331 -18.3592,-14.49197 -6.8449,-3.4553 -19.9131,-8.33641 -30.101,-11.24309 -5.2,-1.48359 -10.0369,-3.00468 -10.7487,-3.3802 -1.9484,-1.02788 -20.209,-2.78759 -28.9429,-2.78911 -15.0987,-0.003 -29.4428,3.13789 -52.3084,11.4525 -9.6932,3.52475 -20.8216,9.0825 -26.1818,13.07582 -5.2281,3.89489 -11.3288,11.3105 -13.1502,15.98455 -2.4489,6.28412 -2.3365,12.52768 0.3197,17.76974 2.3004,4.53982 6.5671,9.35241 8.2917,9.35241 0.6124,0 3.5495,1.17172 6.527,2.60381 5.9588,2.86606 10.0044,4.17795 16.4668,5.33968 2.9136,0.52377 4.8651,1.36012 6.1336,2.62863 1.7492,1.74913 1.8044,2.02157 0.9232,4.55325 -0.5154,1.48105 -2.5267,5.84003 -4.4694,9.68664 -3.6868,7.29976 -8.2095,18.85164 -7.3552,18.78681 0.272,-0.0206 1.5929,-1.41155 2.9353,-3.0909 z m 43.9284,-57.41701 c -4.4451,-4.60841 -4.7565,-9.92837 -0.777,-13.27683 1.65,-1.38845 2.9838,-1.81408 5.6847,-1.81408 2.994,0 3.9148,0.36412 6.0763,2.40264 4.3505,4.10308 4.3948,8.35858 0.1313,12.62205 -2.0193,2.01928 -2.971,2.42986 -5.6326,2.42986 -2.6609,0 -3.5886,-0.39992 -5.4827,-2.36364 z m 46.0119,0.13084 c -4.7368,-1.39725 -6.2939,-7.61681 -3.0951,-12.36348 2.044,-3.03308 5.0313,-3.99683 9.0415,-2.91698 3.5285,0.95011 5.61,3.66483 5.6275,7.33914 0.026,5.40396 -6.048,9.57129 -11.5739,7.94132 z m -86.5302,-2.82411 c -1.5369,-1.60411 -2.1472,-3.07896 -2.4112,-5.82614 -0.3355,-3.49121 -0.2166,-3.80739 2.3371,-6.21582 4.4013,-4.15094 10.2067,-2.86891 12.7916,2.82479 1.6379,3.60775 0.8679,6.63052 -2.3805,9.34542 -3.3906,2.83373 -7.5487,2.78214 -10.337,-0.12825 z M 1331.711,229.23046 c -0.4929,-0.92111 -0.7662,-2.06482 -0.6073,-2.54158 0.1638,-0.4914 0.6771,-0.14148 1.1852,0.80791 0.493,0.92111 0.7663,2.06482 0.6074,2.54158 -0.1638,0.4914 -0.6772,0.14148 -1.1853,-0.80791 z m -10.0542,-17.04865 c -1.4215,-1.83797 -1.9065,-2.9674 -1.0458,-2.4355 0.8612,0.53224 2.5842,3.34459 2.0491,3.34459 -0.1651,0 -0.6166,-0.40909 -1.0033,-0.90909 z"
         id="path35" />
    </g>
  </g>
</svg>
