<?xml version="1.0" encoding="UTF-8" standalone="no"?>
<!-- Created with Inkscape (http://www.inkscape.org/) -->

<svg
   version="1.1"
   id="svg1"
   viewBox="440 450 930 930"
   style="background: white"
   xmlns="http://www.w3.org/2000/svg"
   xmlns:svg="http://www.w3.org/2000/svg">
  <defs
     id="defs1" />
  <g
     id="g1">
    <g
       id="g8">
      <path
         style="fill:#182F53;fill-opacity:1"
         d="m 581.30803,1230.5748 c -1.28059,-0.7808 -2.79571,-2.3341 -3.36696,-3.4518 -2.66036,-5.2052 -2.40906,-8.022 2.80911,-31.4867 5.70793,-25.667 10.38463,-53.5403 14.45993,-86.1818 2.67247,-21.4054 3.15691,-26.6619 4.9264,-53.4546 2.32608,-35.2201 2.04529,-92.62629 -0.59454,-121.54985 l -0.44015,-4.82262 -5.91455,2.72727 c -19.21748,8.86139 -39.21316,13.77959 -56.16185,13.81375 -14.5779,0.0294 -27.40808,-5.88353 -32.84874,-15.13865 -1.73546,-2.95221 -1.99487,-4.16644 -1.99487,-9.33759 0,-6.8501 1.14348,-9.13181 5.71492,-11.40363 4.27874,-2.12635 6.83183,-1.21795 13.90169,4.94625 8.63069,7.52509 10.10441,7.97884 24.21209,7.45461 11.59558,-0.43088 15.5177,-1.10786 25.98948,-4.48593 6.91914,-2.23203 23.5852,-10.31491 24.115,-11.69553 0.41388,-1.07856 -3.95116,-30.96737 -6.71283,-45.96487 -3.86243,-20.97528 -12.95114,-52.7803 -22.06906,-77.22841 -9.45783,-25.35951 -22.12849,-49.40009 -36.05339,-68.40565 -13.63909,-18.61545 -16.15832,-26.28223 -10.4965,-31.94405 6.23896,-6.23896 15.14758,-2.15968 24.02208,10.99979 1.69901,2.51934 4.98772,7.08853 7.30826,10.15375 8.22317,10.86205 16.05923,23.70109 23.23117,38.06324 17.49601,35.03664 34.20368,90.61975 40.72148,135.4723 1.00459,6.91312 2.04036,11.80042 2.50088,11.80042 1.10021,0 16.01397,-15.37834 20.45376,-21.09091 19.82715,-25.51113 32.43758,-48.59137 39.93493,-73.0909 8.42218,-27.52163 10.19848,-39.89963 9.07994,-63.27273 -0.76485,-15.98247 -2.10097,-25.47954 -5.52272,-39.25518 -1.43999,-5.79727 -2.4246,-11.15036 -2.18802,-11.89576 0.23658,-0.7454 -0.22348,-2.79591 -1.02235,-4.55671 -0.79888,-1.76079 -1.45969,-3.91773 -1.46848,-4.79319 -0.0141,-1.40361 -5.60213,-13.62269 -13.70918,-29.97714 -3.02855,-6.10953 -12.33579,-16.82117 -19.3977,-22.32467 -6.68806,-5.21216 -11.83179,-7.28451 -24.35281,-9.81148 -10.64536,-2.14843 -11.55938,-2.22197 -17.79805,-1.43212 -25.19473,3.1898 -51.95365,12.39436 -67.30368,23.15119 -12.30004,8.61949 -25.70604,25.14428 -32.33068,39.85212 -5.46603,12.13552 -5.86304,14.44128 -4.84954,28.16466 1.03176,13.97071 2.85814,32.23833 3.44401,34.44741 0.64854,2.44538 -2.18585,4.88282 -5.0191,4.31617 -3.24798,-0.64959 -4.81164,-2.34136 -7.45625,-8.06712 -5.75356,-12.4568 -8.74143,-40.76601 -5.49921,-52.10343 6.27815,-21.95356 22.89785,-45.92866 41.16531,-59.3839 10.57005,-7.78556 28.52402,-16.84343 42.90909,-21.64785 14.60617,-4.87826 41.02576,-8.86984 53.45455,-8.07612 12.52205,0.79967 25.26289,5.99002 36.39426,14.82625 16.85201,13.37735 28.27728,28.27067 36.64914,47.77366 5.15799,12.016 13.31635,38.09161 14.71209,47.02252 2.17377,13.90924 1.65785,56.41618 -0.82916,68.31614 -1.25157,5.98855 -8.23534,27.09485 -11.06642,33.44486 -0.98322,2.20533 -2.95129,7.43282 -4.37349,11.61665 -7.15137,21.03786 -21.81476,47.17943 -39.21499,69.91156 -5.77334,7.54245 -16.71437,19.06079 -26.25779,27.64332 l -5.98637,5.38361 1.03636,9.81818 c 2.22701,21.0981 2.70606,31.47091 3.07326,66.54545 0.32303,30.85576 0.14648,40.93516 -1.16557,66.54546 -1.83135,35.7465 -2.92738,48.8799 -6.31213,75.6363 -7.3127,57.8069 -13.51123,83.7572 -22.581,94.536 -3.65307,4.3414 -9.52692,5.5907 -13.86106,2.948 z m 509.21297,-73.5153 c -9.8183,-0.3555 -17.1855,-1.028 -22.59,-2.062 -10.4101,-1.9917 -31.9695,-8.1629 -49.3856,-14.1363 -51.38874,-17.6253 -82.9416,-27.6011 -101.45451,-32.0761 -29.98512,-7.2481 -41.09547,-8.6 -57.45454,-6.9911 -18.8175,1.8507 -21.39972,2.7766 -37.45455,13.4305 -5.56265,3.6913 -10.05314,6.1901 -10.90871,6.0702 -1.84981,-0.2593 -4.63006,-7.5292 -4.66716,-12.2038 -0.0479,-6.042 4.85511,-15.2506 11.52129,-21.6386 3.77603,-3.6185 11.51112,-7.6504 17.68534,-9.2183 7.88597,-2.0028 24.57925,-3.5692 38.00561,-3.5664 13.64443,0 19.6383,0.7311 41.45454,5.0359 27.04355,5.3364 69.69702,18.0167 98.90909,29.4044 8,3.1187 19.7304,7.6831 26.0676,10.1431 12.6665,4.9171 31.2751,10.5053 38.9451,11.6953 2.7039,0.4195 15.364,0.8282 28.1336,0.9082 21.5031,0.1347 23.9423,0.019 33.0355,-1.5678 5.4,-0.9423 12.6675,-2.6669 16.15,-3.8325 9.6616,-3.2337 26.2399,-10.3429 31.6963,-13.5921 6.0652,-3.6118 21.5027,-14.9677 27.7181,-20.3898 6.851,-5.9763 22.4569,-23.0816 26.7075,-29.2734 8.6906,-12.6594 28.6961,-52.4632 35.0537,-69.74441 2.1686,-5.89455 11.8227,-38.22644 14.2762,-47.81126 1.4227,-5.55804 3.5012,-19.14631 3.0047,-19.64288 -0.1988,-0.1988 -1.9102,1.00182 -3.8032,2.66805 -4.2047,3.70115 -10.8116,7.7744 -16.2179,9.99861 -7.7892,3.20454 -18.9656,1.84807 -31.1476,-3.78036 -6.6632,-3.07861 -13.7283,-8.05676 -17.2435,-12.14993 -4.0654,-4.73395 -8.8724,-15.18467 -11.4617,-24.91859 l -2.3215,-8.72727 -0.022,-26.54545 c -0.021,-24.43874 0.1001,-27.09492 1.5203,-33.46889 1.9671,-8.82804 4.0775,-13.70407 7.2706,-16.79893 2.2394,-2.17052 2.9937,-2.45945 6.4207,-2.45945 4.255,0 6.1314,1.15158 8.2923,5.08919 1.0762,1.96125 1.1724,5.73733 0.945,37.09263 -0.2395,33.0099 -0.1732,35.2458 1.2176,41.09822 3.4143,14.36655 6.0253,17.89498 16.0706,21.71707 8.6073,3.27498 10.4598,3.42078 15.0332,1.18318 10.4347,-5.10522 19.092,-19.06234 22.5546,-36.36211 3.534,-17.65655 3.0589,-35.77346 -1.2598,-48.04407 -4.2845,-12.17349 -3.5921,-21.5731 1.9474,-26.43689 5.1193,-4.49478 11.7236,-4.48193 18.2896,0.0356 10.318,7.09892 13.3257,20.74678 11.0881,50.31316 -0.4183,5.52729 -1.5089,13.05456 -2.4236,16.72727 -1.5785,6.33807 -1.6293,7.3434 -0.9986,19.76857 1.4421,28.41113 -0.055,43.40758 -6.8234,68.36364 -9.9333,36.62443 -18.6288,61.0317 -27.1047,76.0805 -2.1153,3.7557 -7.0368,12.5558 -10.9365,19.5558 -12.6637,22.7309 -22.5071,35.9508 -39.2904,52.7676 -10.6347,10.6558 -24.2858,21.5113 -34.145,27.1523 -15.8599,9.0743 -42.6581,17.7948 -64.0165,20.8318 -7.7835,1.1068 -21.3151,1.1976 -45.8829,0.3079 z M 759.88543,978.66946 c -14.01685,-5.87711 -20.94793,-13.88067 -26.37928,-30.46111 -3.39677,-10.36942 -4.28843,-17.86377 -3.86565,-32.49043 0.42774,-14.79799 3.30348,-30.84303 8.18881,-45.68909 9.22413,-28.03122 30.10099,-51.39207 50.6337,-56.65822 10.21073,-2.61881 20.89203,0.26162 27.33507,7.37146 1.91105,2.10883 4.3215,4.76819 5.35656,5.9097 1.03506,1.1415 2.9678,2.73 4.29499,3.53 4.86428,2.93209 4.87237,2.98558 5.41492,35.82992 0.70607,42.74368 2.53312,60.22648 7.8249,74.87544 2.40063,6.64556 4.53985,9.04917 10.9405,12.29262 3.1564,1.59947 4.41714,1.84461 7.87448,1.53111 2.26401,-0.2053 4.46385,-0.15853 4.88851,0.10393 0.42467,0.26246 1.16839,2.05089 1.6527,3.97428 1.13743,4.51714 0.0868,8.25508 -3.40736,12.12269 -7.77892,8.61034 -23.53967,6.11229 -36.08126,-5.71882 -3.7969,-3.58179 -5.65452,-6.09681 -8.06792,-10.92308 -1.72441,-3.44845 -3.53395,-7.41536 -4.02119,-8.81536 l -0.88589,-2.54546 -2.43965,5.95585 c -3.77523,9.21635 -6.80291,13.9565 -12.54052,19.63349 -3.94132,3.89967 -6.88722,6.02194 -11.60946,8.36363 -6.04088,2.99558 -6.6606,3.14689 -13.66018,3.33529 -6.34985,0.1709 -7.88349,-0.0338 -11.44678,-1.52784 z m 15.75889,-18.9896 c 3.25483,-1.35996 9.46727,-7.19296 11.63845,-10.92761 2.03548,-3.50123 3.86442,-9.92909 9.83644,-34.57048 3.62744,-14.9673 4.68348,-20.72041 5.47346,-29.81818 0.53836,-6.2 1.46728,-15.69091 2.06426,-21.09091 0.59698,-5.4 1.3069,-13.2785 1.5776,-17.50779 l 0.49219,-7.68961 -3.54519,-2.35793 c -4.11711,-2.73832 -5.3084,-2.67739 -12.22874,0.62538 -3.26394,1.55774 -6.06884,3.76477 -9.94178,7.82268 -12.522,13.12006 -21.5266,32.07376 -27.21714,57.28909 -2.66743,11.81964 -3.36797,30.27474 -1.4468,38.11428 2.02106,8.24712 7.89251,16.14648 14.56201,19.59151 3.48439,1.79981 5.39867,1.91367 8.73524,0.51957 z m 122.74661,7.86228 c -3.31155,-1.63281 -5.10633,-5.85506 -5.98834,-14.08764 -0.96818,-9.0368 -2.39852,-59.61902 -1.83097,-64.74963 0.62233,-5.62574 -0.91656,-47.62368 -1.90031,-51.86158 -0.72567,-3.12612 -0.99223,-3.46618 -2.38061,-3.037 -0.85989,0.26581 -3.05104,0.65788 -4.86921,0.87126 -2.83663,0.33291 -3.63301,0.11262 -5.61163,-1.55229 -7.629,-6.41938 1.22894,-19.27518 13.28103,-19.27518 6.59407,0 12.72338,3.95133 16.49448,10.63336 l 2.19738,3.89353 5.64352,-5.27941 c 7.43536,-6.95564 12.57447,-9.95176 19.91909,-11.61286 11.7673,-2.66136 19.35478,-1.61569 26.26486,3.61969 8.48438,6.42816 6.83688,14.71118 -4.0838,20.53184 -4.1373,2.20516 -5.27617,2.45659 -13.29834,2.93597 -5.12409,0.3062 -9.89515,0.9939 -11.46995,1.65328 -10.37579,4.34441 -18.76634,23.92688 -20.00263,46.68356 -0.23903,4.4 -9.7e-4,19.09206 0.52904,32.64903 1.37703,35.22291 0.1195,45.03371 -6.15389,48.01063 -3.0116,1.4291 -3.79371,1.42602 -6.73972,-0.0266 z m 122.88687,-1.77118 c -10.9092,-4.30644 -19.5779,-19.17611 -22.01974,-37.77101 -0.99398,-7.56919 -0.53524,-48.59387 0.73191,-65.45454 0.37573,-5 0.84913,-15.96364 1.05183,-24.36364 1.8877,-78.2224 2.7423,-95.85049 5.1597,-106.43576 1.5297,-6.69842 3.7763,-9.48039 8.127,-10.06382 2.6928,-0.36111 3.311,-0.15459 5.2042,1.73858 1.1816,1.1816 2.528,3.43166 2.9921,5.00014 0.5692,1.92385 0.9452,14.44734 1.1555,38.48814 0.1715,19.6 0.6534,42.15177 1.071,50.11505 0.4175,7.96328 0.7261,36.27237 0.6857,62.90909 -0.092,60.50402 0.2009,63.22209 7.458,69.29814 l 3.6774,3.07889 5.6339,-3.05321 c 4.7426,-2.57022 5.7688,-2.89059 6.487,-2.0252 1.3776,1.65984 -3.3656,11.09195 -7.0457,14.01083 -7.3136,5.80092 -13.6038,7.19925 -20.3698,4.52832 z m 92.904,-0.32394 c -23.6228,-3.24303 -36.5985,-16.59065 -43.8148,-45.07058 -4.1987,-16.57074 2.4303,-51.87618 14.3405,-76.37648 9.348,-19.22947 23.6722,-34.35741 38.3855,-40.53929 8.1015,-3.40387 14.0425,-4.3568 21.4847,-3.44615 11.1036,1.35865 18.9104,6.17574 23.2726,14.36019 5.6175,10.53953 3.9889,22.09376 -5.3174,37.72498 -6.4105,10.76724 -16.6107,19.61893 -29.6402,25.72164 -11.6831,5.47208 -20.7485,7.00655 -26.3473,4.45973 -3.5947,-1.63522 -4.6845,-2.90871 -5.1982,-6.07463 -0.6074,-3.74279 2.123,-6.57194 7.9046,-8.19053 2.5115,-0.70311 6.6985,-2.3506 9.3044,-3.66109 6.7753,-3.40716 17.5157,-11.93604 20.2727,-16.09827 2.5831,-3.89983 6.1534,-14.44351 5.7775,-17.06207 -0.6029,-4.1999 -11.3035,-3.02075 -18.7002,2.06065 -5.1496,3.53774 -12.1214,11.91735 -17.4108,20.92665 -5.5253,9.41102 -6.9274,12.88308 -9.9246,24.57745 -3.1896,12.44494 -4.2177,20.39276 -3.8968,30.12513 0.2366,7.17384 0.4881,8.36059 2.9486,13.91192 3.313,7.47491 7.2423,12.77124 11.2116,15.11191 3.1036,1.83026 15.4946,4.63771 20.4643,4.63665 5.4766,-0.001 22.6714,-10.15078 26.1808,-15.45383 2.6219,-3.96198 4.4131,-3.51071 6.4947,1.63622 2.9869,7.38567 1.9319,13.47091 -3.7051,21.3704 -5.7332,8.03445 -12.2772,13.02954 -20.0373,15.29472 -4.7347,1.38208 -14.2236,1.40366 -24.0498,0.0547 z m -34.9721,-180.92474 c -3.307,-2.53898 -3.5485,-6.01307 -1.0982,-15.79505 1.9544,-7.80257 13.7432,-39.77437 17.1656,-46.55409 1.2921,-2.55966 2.0665,-5.01328 1.8237,-5.7782 -0.4518,-1.42359 -2.8364,-2.55067 -6.8848,-3.25407 -5.7843,-1.005 -11.3571,-4.63653 -18.4414,-12.0173 -8.4965,-8.85219 -9.6621,-11.5427 -9.4526,-21.81909 0.3905,-19.14876 6.8903,-29.24154 28.2234,-43.82502 13.0303,-8.90754 24.2349,-13.91681 45.8182,-20.484 16.1769,-4.92217 22.7768,-5.70561 45.2284,-5.3688 16.3795,0.24572 19.513,0.4816 24.5898,1.85107 16.9447,4.57084 38.7148,13.65323 49.5915,20.68933 9.8516,6.37299 19.1052,16.375 22.0414,23.82405 2.1018,5.3324 2.0517,16.53203 -0.1,22.34521 -4.605,12.44118 -17.3162,24.54302 -32.7454,31.17559 -12.9785,5.57905 -18.5505,6.8121 -47.1512,10.43428 -10.3591,1.31193 -44.8425,0.55205 -50.348,-1.10948 -1.9704,-0.59463 -24.1238,22.15441 -32.9128,33.79766 -0.7934,1.05107 -4.348,5.34741 -7.8991,9.54741 -3.5511,4.2 -8.874,10.64466 -11.8288,14.32148 -2.9548,3.67681 -6.1003,7.19499 -6.99,7.81818 -1.9136,1.34029 -6.9918,1.45848 -8.6298,0.20084 z m 30.3832,-48.72662 c 1.2761,-1.68764 6.6212,-7.65024 11.8779,-13.25024 5.2567,-5.6 10.4308,-11.40211 11.4979,-12.89357 l 1.9404,-2.71174 9.4545,-0.0303 c 38.5007,-0.12357 48.3927,-0.86815 72.6628,-5.46938 12.8384,-2.43396 24.5014,-7.58529 33.1951,-14.66168 8.4171,-6.8513 11.5967,-12.26488 11.5967,-19.7448 0,-3.33736 -0.3905,-4.86088 -1.7649,-6.88616 -3.0675,-4.52021 -11.8494,-11.6136 -18.7135,-15.11541 -5.9455,-3.03315 -19.4274,-8.05721 -29.2931,-10.91611 -5.5743,-1.61534 -10.6989,-3.23868 -11.3879,-3.60743 -1.8293,-0.97902 -20.9869,-2.87029 -29.0225,-2.86515 -8.6742,0.006 -21.8284,1.7148 -28.2106,3.66569 -25.4768,7.78758 -40.0317,13.6792 -48.501,19.63263 -14.3636,10.09663 -20.2545,24.10232 -14.6693,34.87619 2.2986,4.43395 6.7386,9.45454 8.3613,9.45454 0.5769,0 3.5377,1.19779 6.5797,2.66176 5.594,2.69216 6.6345,3.02453 15.619,4.98962 7.005,1.53212 9.7862,4.45732 7.7741,8.17667 -4.8191,8.90811 -12.8757,27.83169 -11.8297,27.78582 0.2821,-0.0124 1.557,-1.40327 2.8331,-3.0909 z m 43.4638,-58.01256 c -2.5777,-2.63976 -2.8749,-3.32261 -2.8749,-6.60511 0,-3.2159 0.2887,-3.91897 2.3751,-5.78314 1.9642,-1.75499 3.0149,-2.12216 6.0727,-2.12216 3.2227,0 4.0098,0.31213 6.1275,2.42986 2.7102,2.71016 3.6412,5.33883 2.9152,8.23119 -0.2669,1.06358 -1.5788,3.02722 -2.9152,4.36364 -2.0181,2.01815 -2.9717,2.42986 -5.6277,2.42986 -2.7789,0 -3.5745,-0.38573 -6.0727,-2.94414 z m 46.4822,0.6798 c -6.2086,-1.75047 -6.2156,-12.06769 -0.01,-15.066 2.7755,-1.34104 7.5242,-0.43643 9.6285,1.83419 5.7868,6.24401 -1.0489,15.64787 -9.6182,13.23181 z m -85.0185,-1.20134 c -2.3485,-1.66789 -3.975,-4.93227 -3.975,-7.97786 0,-2.72339 0.399,-3.64636 2.4728,-5.7201 2.9267,-2.9267 5.9272,-3.24314 9.5458,-1.00672 3.409,2.10689 5.0437,5.86061 3.9696,9.11517 -1.1446,3.46826 -4.8241,6.14906 -8.4204,6.13496 -1.5623,-0.006 -3.179,-0.25158 -3.5928,-0.54545 z m 217.2111,-447.69234 c -0.5184,-0.62465 -0.8194,-1.72417 -0.6689,-2.44339 0.2403,-1.14777 0.3868,-1.10265 1.1982,0.36902 1.1552,2.09522 0.7632,3.63167 -0.5293,2.07437 z m -10.2743,-17.56636 c -0.938,-0.99843 -1.5216,-1.99909 -1.297,-2.22369 0.2246,-0.22461 1.1209,0.59228 1.9918,1.81531 1.9178,2.69333 1.6176,2.86979 -0.6948,0.40838 z"
         id="path36" />
      </g>
  </g>
</svg>
